<mxfile host="app.diagrams.net" agent="Mozilla/5.0 (Windows NT 10.0; Win64; x64) AppleWebKit/537.36 (KHTML, like Gecko) Chrome/131.0.0.0 Safari/537.36" version="24.9.0">
  <diagram name="Page-1" id="f8XXJJ4PXf3yFEi_HfFr">
    <mxGraphModel dx="1304" dy="853" grid="1" gridSize="10" guides="1" tooltips="1" connect="1" arrows="1" fold="1" page="1" pageScale="1" pageWidth="850" pageHeight="1100" math="0" shadow="0">
      <root>
        <mxCell id="0" />
        <mxCell id="1" parent="0" />
        <mxCell id="lvnkZ1nuC0Zo9pI4247X-33" style="edgeStyle=orthogonalEdgeStyle;rounded=0;orthogonalLoop=1;jettySize=auto;html=1;" parent="1" source="lvnkZ1nuC0Zo9pI4247X-32" target="lvnkZ1nuC0Zo9pI4247X-19" edge="1">
          <mxGeometry relative="1" as="geometry" />
        </mxCell>
        <mxCell id="lvnkZ1nuC0Zo9pI4247X-34" style="edgeStyle=orthogonalEdgeStyle;rounded=0;orthogonalLoop=1;jettySize=auto;html=1;" parent="1" source="lvnkZ1nuC0Zo9pI4247X-32" target="lvnkZ1nuC0Zo9pI4247X-16" edge="1">
          <mxGeometry relative="1" as="geometry" />
        </mxCell>
        <mxCell id="lvnkZ1nuC0Zo9pI4247X-32" value="" style="rounded=0;whiteSpace=wrap;html=1;fillColor=#fff2cc;strokeColor=#d6b656;" parent="1" vertex="1">
          <mxGeometry x="654" y="490" width="180" height="270" as="geometry" />
        </mxCell>
        <mxCell id="lvnkZ1nuC0Zo9pI4247X-1" value="" style="sketch=0;points=[[0,0,0],[0.25,0,0],[0.5,0,0],[0.75,0,0],[1,0,0],[0,1,0],[0.25,1,0],[0.5,1,0],[0.75,1,0],[1,1,0],[0,0.25,0],[0,0.5,0],[0,0.75,0],[1,0.25,0],[1,0.5,0],[1,0.75,0]];outlineConnect=0;fontColor=#232F3E;fillColor=#7AA116;strokeColor=#ffffff;dashed=0;verticalLabelPosition=bottom;verticalAlign=top;align=center;html=1;fontSize=12;fontStyle=0;aspect=fixed;shape=mxgraph.aws4.resourceIcon;resIcon=mxgraph.aws4.s3;" parent="1" vertex="1">
          <mxGeometry x="158.04" y="150" width="78" height="78" as="geometry" />
        </mxCell>
        <mxCell id="lvnkZ1nuC0Zo9pI4247X-6" style="edgeStyle=orthogonalEdgeStyle;rounded=0;orthogonalLoop=1;jettySize=auto;html=1;" parent="1" source="lvnkZ1nuC0Zo9pI4247X-2" target="lvnkZ1nuC0Zo9pI4247X-4" edge="1">
          <mxGeometry relative="1" as="geometry" />
        </mxCell>
        <mxCell id="lvnkZ1nuC0Zo9pI4247X-2" value="" style="sketch=0;outlineConnect=0;fontColor=#232F3E;gradientColor=none;fillColor=#7AA116;strokeColor=none;dashed=0;verticalLabelPosition=bottom;verticalAlign=top;align=center;html=1;fontSize=12;fontStyle=0;aspect=fixed;pointerEvents=1;shape=mxgraph.aws4.bucket;" parent="1" vertex="1">
          <mxGeometry x="173" y="280" width="48.08" height="50" as="geometry" />
        </mxCell>
        <mxCell id="lvnkZ1nuC0Zo9pI4247X-3" value="" style="sketch=0;points=[[0,0,0],[0.25,0,0],[0.5,0,0],[0.75,0,0],[1,0,0],[0,1,0],[0.25,1,0],[0.5,1,0],[0.75,1,0],[1,1,0],[0,0.25,0],[0,0.5,0],[0,0.75,0],[1,0.25,0],[1,0.5,0],[1,0.75,0]];outlineConnect=0;fontColor=#232F3E;fillColor=#ED7100;strokeColor=#ffffff;dashed=0;verticalLabelPosition=bottom;verticalAlign=top;align=center;html=1;fontSize=12;fontStyle=0;aspect=fixed;shape=mxgraph.aws4.resourceIcon;resIcon=mxgraph.aws4.lambda;" parent="1" vertex="1">
          <mxGeometry x="410" y="150" width="78" height="78" as="geometry" />
        </mxCell>
        <mxCell id="lvnkZ1nuC0Zo9pI4247X-7" style="edgeStyle=orthogonalEdgeStyle;rounded=0;orthogonalLoop=1;jettySize=auto;html=1;" parent="1" source="lvnkZ1nuC0Zo9pI4247X-4" target="lvnkZ1nuC0Zo9pI4247X-5" edge="1">
          <mxGeometry relative="1" as="geometry" />
        </mxCell>
        <mxCell id="lvnkZ1nuC0Zo9pI4247X-4" value="transcribe" style="sketch=0;outlineConnect=0;fontColor=#232F3E;gradientColor=none;fillColor=#ED7100;strokeColor=none;dashed=0;verticalLabelPosition=bottom;verticalAlign=top;align=center;html=1;fontSize=12;fontStyle=0;aspect=fixed;pointerEvents=1;shape=mxgraph.aws4.lambda_function;" parent="1" vertex="1">
          <mxGeometry x="425" y="281" width="48" height="48" as="geometry" />
        </mxCell>
        <mxCell id="lvnkZ1nuC0Zo9pI4247X-8" style="edgeStyle=orthogonalEdgeStyle;rounded=0;orthogonalLoop=1;jettySize=auto;html=1;" parent="1" source="lvnkZ1nuC0Zo9pI4247X-5" target="lvnkZ1nuC0Zo9pI4247X-2" edge="1">
          <mxGeometry relative="1" as="geometry" />
        </mxCell>
        <mxCell id="lvnkZ1nuC0Zo9pI4247X-5" value="AWS Transribe" style="sketch=0;points=[[0,0,0],[0.25,0,0],[0.5,0,0],[0.75,0,0],[1,0,0],[0,1,0],[0.25,1,0],[0.5,1,0],[0.75,1,0],[1,1,0],[0,0.25,0],[0,0.5,0],[0,0.75,0],[1,0.25,0],[1,0.5,0],[1,0.75,0]];outlineConnect=0;fontColor=#232F3E;fillColor=#01A88D;strokeColor=#ffffff;dashed=0;verticalLabelPosition=bottom;verticalAlign=top;align=center;html=1;fontSize=12;fontStyle=0;aspect=fixed;shape=mxgraph.aws4.resourceIcon;resIcon=mxgraph.aws4.transcribe;" parent="1" vertex="1">
          <mxGeometry x="670" y="360" width="78" height="78" as="geometry" />
        </mxCell>
        <mxCell id="lvnkZ1nuC0Zo9pI4247X-11" style="edgeStyle=orthogonalEdgeStyle;rounded=0;orthogonalLoop=1;jettySize=auto;html=1;" parent="1" target="lvnkZ1nuC0Zo9pI4247X-13" edge="1">
          <mxGeometry relative="1" as="geometry">
            <mxPoint x="460" y="550" as="targetPoint" />
            <mxPoint x="197" y="400" as="sourcePoint" />
            <Array as="points">
              <mxPoint x="197" y="484" />
            </Array>
          </mxGeometry>
        </mxCell>
        <mxCell id="lvnkZ1nuC0Zo9pI4247X-20" style="edgeStyle=orthogonalEdgeStyle;rounded=0;orthogonalLoop=1;jettySize=auto;html=1;" parent="1" source="lvnkZ1nuC0Zo9pI4247X-13" target="lvnkZ1nuC0Zo9pI4247X-19" edge="1">
          <mxGeometry relative="1" as="geometry">
            <Array as="points">
              <mxPoint x="470" y="484" />
              <mxPoint x="470" y="655" />
            </Array>
          </mxGeometry>
        </mxCell>
        <mxCell id="lvnkZ1nuC0Zo9pI4247X-21" value="job id&lt;br&gt;complete" style="edgeLabel;html=1;align=center;verticalAlign=middle;resizable=0;points=[];" parent="lvnkZ1nuC0Zo9pI4247X-20" vertex="1" connectable="0">
          <mxGeometry x="-0.1261" y="-1" relative="1" as="geometry">
            <mxPoint as="offset" />
          </mxGeometry>
        </mxCell>
        <mxCell id="lvnkZ1nuC0Zo9pI4247X-13" value="ETL" style="sketch=0;outlineConnect=0;fontColor=#232F3E;gradientColor=none;fillColor=#ED7100;strokeColor=none;dashed=0;verticalLabelPosition=bottom;verticalAlign=top;align=center;html=1;fontSize=12;fontStyle=0;aspect=fixed;pointerEvents=1;shape=mxgraph.aws4.lambda_function;" parent="1" vertex="1">
          <mxGeometry x="386" y="460" width="48" height="48" as="geometry" />
        </mxCell>
        <mxCell id="lvnkZ1nuC0Zo9pI4247X-14" value="database" style="sketch=0;points=[[0,0,0],[0.25,0,0],[0.5,0,0],[0.75,0,0],[1,0,0],[0,1,0],[0.25,1,0],[0.5,1,0],[0.75,1,0],[1,1,0],[0,0.25,0],[0,0.5,0],[0,0.75,0],[1,0.25,0],[1,0.5,0],[1,0.75,0]];outlineConnect=0;fontColor=#232F3E;fillColor=#C925D1;strokeColor=#ffffff;dashed=0;verticalLabelPosition=bottom;verticalAlign=top;align=center;html=1;fontSize=12;fontStyle=0;aspect=fixed;shape=mxgraph.aws4.resourceIcon;resIcon=mxgraph.aws4.rds;" parent="1" vertex="1">
          <mxGeometry x="371" y="830" width="78" height="78" as="geometry" />
        </mxCell>
        <mxCell id="lvnkZ1nuC0Zo9pI4247X-15" style="edgeStyle=orthogonalEdgeStyle;rounded=0;orthogonalLoop=1;jettySize=auto;html=1;" parent="1" source="lvnkZ1nuC0Zo9pI4247X-13" target="lvnkZ1nuC0Zo9pI4247X-14" edge="1">
          <mxGeometry relative="1" as="geometry" />
        </mxCell>
        <mxCell id="lvnkZ1nuC0Zo9pI4247X-26" value="persist data" style="edgeLabel;html=1;align=center;verticalAlign=middle;resizable=0;points=[];" parent="lvnkZ1nuC0Zo9pI4247X-15" vertex="1" connectable="0">
          <mxGeometry x="-0.0256" relative="1" as="geometry">
            <mxPoint as="offset" />
          </mxGeometry>
        </mxCell>
        <mxCell id="lvnkZ1nuC0Zo9pI4247X-16" value="Bedrock FM" style="sketch=0;points=[[0,0,0],[0.25,0,0],[0.5,0,0],[0.75,0,0],[1,0,0],[0,1,0],[0.25,1,0],[0.5,1,0],[0.75,1,0],[1,1,0],[0,0.25,0],[0,0.5,0],[0,0.75,0],[1,0.25,0],[1,0.5,0],[1,0.75,0]];outlineConnect=0;fontColor=#232F3E;fillColor=#01A88D;strokeColor=#ffffff;dashed=0;verticalLabelPosition=bottom;verticalAlign=top;align=center;html=1;fontSize=12;fontStyle=0;aspect=fixed;shape=mxgraph.aws4.resourceIcon;resIcon=mxgraph.aws4.bedrock;" parent="1" vertex="1">
          <mxGeometry x="960" y="586" width="78" height="78" as="geometry" />
        </mxCell>
        <mxCell id="lvnkZ1nuC0Zo9pI4247X-18" value="" style="sketch=0;points=[[0,0,0],[0.25,0,0],[0.5,0,0],[0.75,0,0],[1,0,0],[0,1,0],[0.25,1,0],[0.5,1,0],[0.75,1,0],[1,1,0],[0,0.25,0],[0,0.5,0],[0,0.75,0],[1,0.25,0],[1,0.5,0],[1,0.75,0]];outlineConnect=0;fontColor=#232F3E;fillColor=#E7157B;strokeColor=#ffffff;dashed=0;verticalLabelPosition=bottom;verticalAlign=top;align=center;html=1;fontSize=12;fontStyle=0;aspect=fixed;shape=mxgraph.aws4.resourceIcon;resIcon=mxgraph.aws4.sns;" parent="1" vertex="1">
          <mxGeometry x="509.99" y="530" width="78" height="78" as="geometry" />
        </mxCell>
        <mxCell id="lvnkZ1nuC0Zo9pI4247X-19" value="" style="sketch=0;outlineConnect=0;fontColor=#232F3E;gradientColor=none;fillColor=#E7157B;strokeColor=none;dashed=0;verticalLabelPosition=bottom;verticalAlign=top;align=center;html=1;fontSize=12;fontStyle=0;aspect=fixed;pointerEvents=1;shape=mxgraph.aws4.topic;" parent="1" vertex="1">
          <mxGeometry x="519.89" y="630" width="58.21" height="50" as="geometry" />
        </mxCell>
        <mxCell id="lvnkZ1nuC0Zo9pI4247X-22" value="categorize" style="sketch=0;outlineConnect=0;fontColor=#232F3E;gradientColor=none;fillColor=#ED7100;strokeColor=none;dashed=0;verticalLabelPosition=bottom;verticalAlign=top;align=center;html=1;fontSize=12;fontStyle=0;aspect=fixed;pointerEvents=1;shape=mxgraph.aws4.lambda_function;" parent="1" vertex="1">
          <mxGeometry x="720" y="582" width="48" height="48" as="geometry" />
        </mxCell>
        <mxCell id="lvnkZ1nuC0Zo9pI4247X-24" value="summarizer" style="sketch=0;outlineConnect=0;fontColor=#232F3E;gradientColor=none;fillColor=#ED7100;strokeColor=none;dashed=0;verticalLabelPosition=bottom;verticalAlign=top;align=center;html=1;fontSize=12;fontStyle=0;aspect=fixed;pointerEvents=1;shape=mxgraph.aws4.lambda_function;" parent="1" vertex="1">
          <mxGeometry x="720" y="675" width="48" height="48" as="geometry" />
        </mxCell>
        <mxCell id="lvnkZ1nuC0Zo9pI4247X-31" style="edgeStyle=orthogonalEdgeStyle;rounded=0;orthogonalLoop=1;jettySize=auto;html=1;entryX=1;entryY=0.5;entryDx=0;entryDy=0;entryPerimeter=0;startArrow=classic;startFill=1;" parent="1" source="lvnkZ1nuC0Zo9pI4247X-32" target="lvnkZ1nuC0Zo9pI4247X-14" edge="1">
          <mxGeometry relative="1" as="geometry">
            <mxPoint x="744" y="790" as="sourcePoint" />
            <Array as="points">
              <mxPoint x="744" y="869" />
            </Array>
          </mxGeometry>
        </mxCell>
        <mxCell id="lvnkZ1nuC0Zo9pI4247X-35" value="other" style="sketch=0;outlineConnect=0;fontColor=#232F3E;gradientColor=none;fillColor=#ED7100;strokeColor=none;dashed=0;verticalLabelPosition=bottom;verticalAlign=top;align=center;html=1;fontSize=12;fontStyle=0;aspect=fixed;pointerEvents=1;shape=mxgraph.aws4.lambda_function;" parent="1" vertex="1">
          <mxGeometry x="721" y="503" width="48" height="48" as="geometry" />
        </mxCell>
        <mxCell id="7h3-V4vXmUnrsEJuSM43-58" style="edgeStyle=orthogonalEdgeStyle;rounded=0;orthogonalLoop=1;jettySize=auto;html=1;" edge="1" parent="1" source="7h3-V4vXmUnrsEJuSM43-55" target="7h3-V4vXmUnrsEJuSM43-57">
          <mxGeometry relative="1" as="geometry" />
        </mxCell>
        <mxCell id="7h3-V4vXmUnrsEJuSM43-68" style="edgeStyle=orthogonalEdgeStyle;rounded=0;orthogonalLoop=1;jettySize=auto;html=1;" edge="1" parent="1" source="7h3-V4vXmUnrsEJuSM43-55" target="7h3-V4vXmUnrsEJuSM43-66">
          <mxGeometry relative="1" as="geometry" />
        </mxCell>
        <mxCell id="7h3-V4vXmUnrsEJuSM43-55" value="Call API" style="sketch=0;points=[[0,0,0],[0.25,0,0],[0.5,0,0],[0.75,0,0],[1,0,0],[0,1,0],[0.25,1,0],[0.5,1,0],[0.75,1,0],[1,1,0],[0,0.25,0],[0,0.5,0],[0,0.75,0],[1,0.25,0],[1,0.5,0],[1,0.75,0]];outlineConnect=0;fontColor=#232F3E;fillColor=#8C4FFF;strokeColor=#ffffff;dashed=0;verticalLabelPosition=bottom;verticalAlign=top;align=center;html=1;fontSize=12;fontStyle=0;aspect=fixed;shape=mxgraph.aws4.resourceIcon;resIcon=mxgraph.aws4.cloudfront;" vertex="1" parent="1">
          <mxGeometry x="206.12" y="675" width="78" height="78" as="geometry" />
        </mxCell>
        <mxCell id="7h3-V4vXmUnrsEJuSM43-57" value="Frontend &lt;br&gt;static assets" style="sketch=0;outlineConnect=0;fontColor=#232F3E;gradientColor=none;fillColor=#7AA116;strokeColor=none;dashed=0;verticalLabelPosition=bottom;verticalAlign=top;align=center;html=1;fontSize=12;fontStyle=0;aspect=fixed;pointerEvents=1;shape=mxgraph.aws4.bucket;" vertex="1" parent="1">
          <mxGeometry x="221.07999999999998" y="525" width="48.08" height="50" as="geometry" />
        </mxCell>
        <mxCell id="7h3-V4vXmUnrsEJuSM43-60" style="edgeStyle=orthogonalEdgeStyle;rounded=0;orthogonalLoop=1;jettySize=auto;html=1;" edge="1" parent="1" source="7h3-V4vXmUnrsEJuSM43-70" target="7h3-V4vXmUnrsEJuSM43-55">
          <mxGeometry relative="1" as="geometry">
            <mxPoint x="110" y="713.9090909090908" as="sourcePoint" />
          </mxGeometry>
        </mxCell>
        <mxCell id="7h3-V4vXmUnrsEJuSM43-62" style="edgeStyle=orthogonalEdgeStyle;rounded=0;orthogonalLoop=1;jettySize=auto;html=1;" edge="1" parent="1" source="7h3-V4vXmUnrsEJuSM43-61" target="lvnkZ1nuC0Zo9pI4247X-14">
          <mxGeometry relative="1" as="geometry" />
        </mxCell>
        <mxCell id="7h3-V4vXmUnrsEJuSM43-61" value="ECS" style="sketch=0;points=[[0,0,0],[0.25,0,0],[0.5,0,0],[0.75,0,0],[1,0,0],[0,1,0],[0.25,1,0],[0.5,1,0],[0.75,1,0],[1,1,0],[0,0.25,0],[0,0.5,0],[0,0.75,0],[1,0.25,0],[1,0.5,0],[1,0.75,0]];outlineConnect=0;fontColor=#232F3E;fillColor=#ED7100;strokeColor=#ffffff;dashed=0;verticalLabelPosition=bottom;verticalAlign=top;align=center;html=1;fontSize=12;fontStyle=0;aspect=fixed;shape=mxgraph.aws4.resourceIcon;resIcon=mxgraph.aws4.ecs;" vertex="1" parent="1">
          <mxGeometry x="371" y="960" width="78" height="78" as="geometry" />
        </mxCell>
        <mxCell id="7h3-V4vXmUnrsEJuSM43-67" style="edgeStyle=orthogonalEdgeStyle;rounded=0;orthogonalLoop=1;jettySize=auto;html=1;" edge="1" parent="1" source="7h3-V4vXmUnrsEJuSM43-66" target="7h3-V4vXmUnrsEJuSM43-61">
          <mxGeometry relative="1" as="geometry" />
        </mxCell>
        <mxCell id="7h3-V4vXmUnrsEJuSM43-66" value="ALB" style="sketch=0;outlineConnect=0;fontColor=#232F3E;gradientColor=none;fillColor=#8C4FFF;strokeColor=none;dashed=0;verticalLabelPosition=bottom;verticalAlign=top;align=center;html=1;fontSize=12;fontStyle=0;aspect=fixed;pointerEvents=1;shape=mxgraph.aws4.application_load_balancer;" vertex="1" parent="1">
          <mxGeometry x="206.12" y="960" width="78" height="78" as="geometry" />
        </mxCell>
        <mxCell id="7h3-V4vXmUnrsEJuSM43-70" value="End User" style="sketch=0;outlineConnect=0;fontColor=#232F3E;gradientColor=none;fillColor=#232F3D;strokeColor=none;dashed=0;verticalLabelPosition=bottom;verticalAlign=top;align=center;html=1;fontSize=12;fontStyle=0;aspect=fixed;pointerEvents=1;shape=mxgraph.aws4.user;" vertex="1" parent="1">
          <mxGeometry x="40" y="675" width="78" height="78" as="geometry" />
        </mxCell>
      </root>
    </mxGraphModel>
  </diagram>
</mxfile>
